<svg xmlns="http://www.w3.org/2000/svg" width="40" height="38" viewBox="0 0 40 38"><g><g><g/><g><g><path fill="#607d8b" d="M38.502 16.654L19.988 35.17 1.474 16.654a.87.87 0 0 0-1.23 1.23l19.13 19.13c.34.339.89.339 1.23 0l19.129-19.13a.87.87 0 0 0-1.23-1.23z"/></g><g><path fill="#607d8b" d="M38.502.995L19.988 19.511 1.474.995a.87.87 0 0 0-1.23 1.23l19.13 19.13c.34.339.89.339 1.23 0l19.129-19.13a.87.87 0 1 0-1.23-1.23z"/></g></g><g><path d="M19.99 37.269a.87.87 0 0 1-.616-.254L.244 17.885a.87.87 0 0 1 1.23-1.23L19.989 35.17l18.514-18.516a.87.87 0 0 1 1.23 1.23l-19.13 19.13a.87.87 0 0 1-.614.255z"/></g><g><path d="M19.99 21.61a.87.87 0 0 1-.616-.254L.244 2.226A.87.87 0 0 1 1.474.998l18.515 18.514L38.503.995a.87.87 0 1 1 1.23 1.23l-19.13 19.13a.87.87 0 0 1-.614.255z"/></g></g></g></svg>