<?xml version="1.0" standalone="no"?>
<!DOCTYPE svg PUBLIC "-//W3C//DTD SVG 20010904//EN"
 "http://www.w3.org/TR/2001/REC-SVG-20010904/DTD/svg10.dtd">
<svg version="1.0" xmlns="http://www.w3.org/2000/svg"
 width="1201.000000pt" height="577.000000pt" viewBox="0 0 1201.000000 577.000000"
 preserveAspectRatio="xMidYMid meet">
<metadata>
Created by potrace 1.16, written by Peter Selinger 2001-2019
</metadata>
<g transform="translate(0.000000,577.000000) scale(0.100000,-0.100000)"
fill="#000000" stroke="none">
<path d="M7665 5589 c-221 -23 -1001 -83 -1270 -99 -441 -25 -548 -24 -967 7
l-88 6 0 -109 c0 -60 -3 -146 -7 -191 l-6 -83 -33 0 c-55 0 -64 -8 -64 -56 l0
-43 -57 -3 -58 -3 -32 -60 c-18 -33 -33 -65 -33 -71 0 -17 173 -92 333 -145
267 -89 657 -145 814 -118 47 8 75 8 102 1 20 -6 61 -12 91 -13 30 -1 61 -4
68 -7 9 -3 12 -58 12 -226 0 -285 -17 -966 -36 -1453 -9 -210 -15 -457 -13
-550 1 -92 -2 -224 -6 -293 -6 -99 -4 -144 10 -217 15 -81 15 -94 2 -115 -23
-36 -37 -188 -44 -457 -5 -214 -3 -254 12 -311 9 -36 19 -111 21 -168 2 -57 6
-107 9 -113 4 -5 31 -9 61 -9 30 0 54 -3 54 -7 0 -5 -11 -30 -25 -57 -41 -81
-32 -247 14 -246 13 1 50 43 138 157 9 12 18 13 40 6 20 -7 35 -6 53 4 14 7
51 13 84 13 l59 0 58 62 c32 35 59 66 59 70 0 4 -9 12 -20 18 -28 15 -25 29
13 70 59 63 62 71 61 159 -2 68 1 83 16 91 25 13 34 82 45 335 4 80 12 142 21
162 10 22 14 71 14 177 0 112 3 147 14 153 21 13 46 229 46 409 0 87 4 165 9
172 5 9 17 11 35 6 24 -6 27 -4 24 12 -2 14 -13 20 -41 22 l-37 3 0 57 c0 31
-7 78 -17 103 -16 45 -15 48 5 82 22 37 20 47 -9 47 -10 0 -20 4 -23 8 -3 5 4
56 16 113 19 99 46 170 68 184 5 3 10 24 10 45 0 29 -7 48 -28 71 -25 28 -31
30 -51 19 -27 -14 -44 2 -37 34 6 24 -14 64 -48 95 -36 34 -33 51 8 51 19 0
36 5 38 11 2 6 0 54 -4 107 -6 78 -5 108 9 152 19 65 25 230 11 315 -5 33 -30
106 -54 161 -24 56 -44 107 -44 112 0 6 24 12 53 14 48 3 52 5 55 29 2 17 -13
53 -42 104 -26 42 -46 81 -46 86 0 5 13 35 29 67 15 31 34 86 40 122 14 74 62
162 105 193 16 11 45 23 65 26 32 6 37 10 41 41 l5 35 93 3 c93 3 94 3 155 48
34 25 88 57 119 72 32 15 58 32 58 39 0 6 -13 21 -29 32 -54 39 -72 82 -74
174 -2 76 0 83 21 92 18 8 22 18 22 53 0 36 4 44 26 52 20 8 25 16 22 38 -4
32 -10 33 -123 21z"/>
<path d="M4985 5484 c-66 -7 -190 -18 -275 -23 -85 -6 -240 -18 -345 -27 -221
-20 -1051 -24 -1195 -7 -110 13 -116 8 -111 -85 5 -98 4 -149 -5 -222 l-9 -65
-45 -5 c-45 -5 -45 -5 -48 -47 l-3 -42 -50 -3 c-27 -2 -49 -6 -49 -10 -1 -4
-18 -45 -40 -90 -55 -112 -53 -131 10 -163 137 -69 335 -144 500 -188 190 -51
542 -87 660 -67 38 6 75 8 82 3 7 -4 38 -10 68 -13 l55 -5 0 -240 c0 -294 -19
-995 -43 -1565 -11 -264 -15 -441 -9 -467 5 -25 4 -99 -2 -183 -9 -118 -8
-153 5 -216 14 -66 14 -78 1 -92 -14 -16 -24 -106 -31 -282 -1 -36 -6 -151
-11 -255 -7 -163 -6 -198 9 -247 9 -33 16 -92 16 -146 0 -90 15 -186 33 -210
5 -6 23 -12 39 -12 25 0 29 -3 22 -17 -5 -10 -10 -56 -12 -103 -2 -78 0 -89
27 -140 26 -49 33 -55 64 -58 33 -3 38 1 102 83 63 81 69 86 97 80 21 -5 35
-2 49 11 14 12 43 20 92 24 l73 5 82 92 c45 50 82 95 82 98 0 4 -9 14 -21 24
l-21 17 34 41 c32 38 34 44 31 107 -3 57 -1 67 17 78 16 10 20 24 20 61 0 27
5 58 12 70 7 12 13 49 14 82 2 115 17 275 25 275 5 0 10 75 11 167 3 166 3
168 26 171 25 4 25 5 13 48 -5 18 -5 52 1 85 6 30 13 140 17 244 l6 190 33 -3
33 -3 -3 83 -3 83 -37 3 c-36 3 -36 4 -41 55 -3 29 -8 66 -12 82 -5 25 0 41
30 84 20 30 34 60 31 68 -3 7 -20 13 -41 13 -30 0 -35 3 -35 24 0 42 40 154
65 184 20 23 25 41 25 81 0 49 -3 54 -62 117 l-63 66 -5 141 c-6 141 5 232 31
264 8 8 8 27 0 61 -7 33 -7 61 -1 83 14 47 -11 180 -49 264 -17 37 -31 74 -31
81 0 8 15 14 37 16 37 3 38 5 46 50 9 45 7 52 -38 135 l-47 87 26 53 c14 29
26 62 26 72 0 33 42 146 65 177 13 17 38 37 55 44 l32 13 -89 46 -88 46 1 46
c0 33 13 71 46 140 25 52 48 102 51 111 4 12 19 18 49 20 43 3 43 3 46 46 3
42 3 42 43 42 l39 0 0 53 c0 29 5 58 11 64 11 11 8 59 -6 131 -7 32 -8 32 -64
31 -31 -1 -110 -8 -176 -15z"/>
<path d="M9054 3451 c-22 -15 -47 -39 -56 -52 -8 -13 -45 -44 -81 -69 -37 -25
-67 -51 -67 -57 0 -7 14 -35 30 -61 17 -27 30 -57 30 -66 0 -9 9 -34 20 -55
20 -40 88 -271 123 -421 13 -58 19 -119 19 -190 -1 -177 -9 -306 -21 -328 -13
-24 -4 -170 11 -189 6 -7 7 -21 3 -30 -10 -25 -15 -56 -22 -160 l-6 -91 39
-37 c84 -80 196 -107 267 -65 40 24 99 25 135 3 22 -13 24 -13 29 7 4 15 11
19 25 15 27 -9 108 33 127 66 11 20 21 27 34 23 12 -4 17 0 17 15 0 33 11 51
31 51 11 0 22 7 25 15 3 8 14 17 24 20 10 3 20 13 23 23 3 9 15 31 27 48 19
29 19 33 5 48 -9 9 -26 16 -37 16 -11 0 -26 6 -32 14 -9 11 -31 12 -121 5
-306 -24 -335 -23 -335 19 0 21 53 159 66 172 5 5 65 16 134 25 69 10 135 21
147 26 32 12 81 58 89 83 4 11 25 42 46 68 22 26 37 52 33 58 -3 6 5 24 19 41
32 38 32 49 1 79 -25 23 -31 24 -198 25 -94 0 -177 4 -183 7 -6 4 -14 36 -18
70 -3 35 -10 96 -16 137 -5 40 -7 77 -4 82 3 5 65 9 137 9 177 0 328 36 417
100 16 11 33 20 39 20 19 0 49 -74 95 -231 79 -276 108 -495 87 -664 -6 -49
-22 -178 -36 -285 -14 -107 -25 -205 -25 -217 0 -30 31 -30 85 -3 22 11 50 20
62 20 13 0 26 7 29 15 4 8 17 15 31 15 50 0 108 47 151 123 12 21 22 45 22 53
0 8 6 14 13 14 9 0 20 28 31 78 15 68 19 100 25 200 0 12 5 22 11 22 5 0 42
-30 82 -66 68 -61 125 -128 200 -234 100 -143 287 -346 353 -385 25 -14 49
-34 55 -45 13 -25 66 -53 105 -55 17 -1 47 -5 68 -10 35 -7 40 -4 79 35 28 27
48 40 60 37 11 -3 22 2 27 11 10 20 8 92 -2 110 -5 6 -5 17 -2 22 7 12 -85
120 -102 120 -7 0 -13 6 -13 14 0 8 -8 21 -18 28 -10 7 -60 60 -111 118 -52
58 -102 111 -113 118 -10 7 -24 25 -32 40 -16 31 -116 155 -261 327 -188 222
-187 220 -137 252 15 10 36 28 47 40 11 13 28 23 37 23 22 0 92 47 157 106 34
30 63 70 86 117 37 76 42 108 21 146 -7 13 -11 32 -9 42 3 10 0 32 -5 48 -7
19 -7 33 -1 36 15 10 11 20 -13 30 -15 6 -22 17 -20 29 4 22 -35 66 -58 66
-21 0 -40 20 -40 42 0 18 -65 53 -81 43 -10 -7 -65 20 -92 43 -25 23 -160 28
-177 7 -16 -19 -37 -19 -47 -1 -6 11 -49 15 -218 16 -285 3 -266 5 -312 -35
-23 -19 -47 -35 -55 -35 -7 0 -35 -11 -61 -25 -47 -23 -54 -24 -215 -19 -179
5 -295 25 -485 84 -88 28 -100 35 -139 80 -24 28 -50 50 -59 50 -9 0 -34 -13
-55 -29z m1720 -421 c14 -5 48 -31 75 -57 44 -43 50 -54 56 -104 5 -43 3 -64
-9 -87 -44 -86 -107 -124 -307 -188 -12 -4 -19 8 -32 58 -32 122 -55 194 -86
268 -17 41 -27 78 -22 83 26 26 274 47 325 27z"/>
<path d="M7690 3381 c-88 -18 -150 -88 -150 -167 0 -44 20 -115 45 -165 50
-95 115 -376 115 -493 0 -99 9 -138 32 -144 19 -5 19 -5 0 -26 -16 -18 -20
-42 -25 -156 -3 -74 -15 -206 -27 -294 -12 -87 -19 -165 -16 -173 4 -9 13 -12
26 -8 15 5 31 -2 56 -25 40 -34 195 -114 253 -130 89 -24 298 -41 385 -31 91
11 240 64 233 85 -2 6 -21 17 -43 25 -21 8 -41 16 -43 17 -2 2 13 18 33 37 20
19 36 42 36 50 0 9 10 22 23 28 12 6 32 21 44 32 12 11 29 17 37 14 23 -9 19
-42 -6 -60 -22 -15 -22 -16 -5 -34 18 -17 19 -17 38 6 10 13 19 35 19 50 0 15
9 44 20 66 11 22 20 46 20 55 0 9 5 21 11 27 22 22 -12 23 -113 3 -143 -28
-297 -38 -430 -28 -175 13 -162 3 -153 109 5 72 4 89 -7 89 -19 0 -37 -20 -32
-35 7 -17 -20 -26 -57 -18 -25 5 -30 10 -25 27 3 12 6 24 6 28 0 4 9 8 21 10
l21 3 -21 26 c-19 24 -19 28 -4 33 12 5 14 9 5 18 -23 23 -14 47 17 46 39 -1
53 9 42 31 -6 10 -10 33 -10 52 -1 19 -4 66 -7 105 -5 61 -3 72 12 78 14 5 16
2 11 -22 -3 -16 -1 -34 5 -40 10 -10 16 -98 6 -107 -5 -6 6 -94 16 -116 4 -9
-1 -25 -13 -40 l-20 -24 -1 28 c0 30 -24 37 -34 10 -9 -21 11 -39 52 -48 32
-7 32 -6 33 32 4 140 -5 313 -16 347 -8 22 -12 43 -9 48 16 25 -41 269 -72
308 -6 8 -9 21 -7 28 3 7 -2 23 -10 36 -8 12 -17 31 -19 42 -5 32 -126 256
-166 309 -40 54 -61 61 -132 46z"/>
<path d="M905 3374 c-28 -11 -175 -19 -223 -12 -47 7 -59 6 -90 -12 -54 -32
-122 -91 -122 -106 0 -7 -6 -11 -12 -9 -15 5 -86 -42 -102 -67 -8 -13 -4 -37
17 -100 56 -173 123 -423 178 -663 26 -110 31 -155 34 -290 1 -90 -2 -176 -8
-197 -8 -31 -7 -41 6 -56 15 -16 15 -27 6 -78 -6 -32 -15 -64 -21 -71 -12 -15
-1 -36 14 -27 7 5 9 -1 5 -18 -5 -18 1 -36 24 -66 34 -46 41 -49 59 -27 7 8
25 15 41 15 57 0 77 16 117 97 22 43 56 128 76 188 20 61 43 124 51 140 7 17
18 49 24 72 14 50 26 58 106 67 33 4 70 14 84 22 19 13 27 14 47 3 28 -15 31
-29 7 -29 -28 0 -2 -16 55 -35 77 -25 168 -89 181 -127 14 -39 -2 -59 -104
-128 -83 -56 -143 -87 -330 -170 -134 -59 -178 -81 -430 -217 -156 -84 -192
-109 -210 -143 -14 -28 -14 -31 0 -36 9 -4 24 1 34 10 10 9 25 16 32 14 8 -2
13 4 13 15 -2 19 -2 19 101 21 51 1 89 10 138 30 54 22 71 25 80 16 9 -10 9
-14 -1 -17 -7 -3 -25 -15 -39 -27 -20 -17 -24 -27 -18 -45 5 -18 12 -21 28
-17 158 46 213 57 232 45 14 -9 20 -9 23 0 2 6 12 11 23 11 11 0 19 7 19 18 0
11 20 26 56 42 68 31 79 42 65 69 -9 16 -7 25 13 46 16 17 25 22 28 13 4 -10
11 -8 31 5 14 9 37 17 50 17 17 0 27 9 37 34 13 35 58 69 193 145 73 41 120
103 112 143 -5 23 -4 27 9 22 12 -4 16 0 16 15 0 12 5 21 11 21 5 0 7 -4 4
-10 -8 -13 1 -13 42 2 36 13 53 49 34 72 -8 9 -4 26 14 64 14 29 25 63 25 78
0 14 4 33 9 43 21 39 -79 177 -144 197 -36 11 -83 53 -89 80 -7 28 15 64 41
64 19 0 122 86 147 123 22 32 33 39 81 54 22 6 33 18 42 43 15 43 16 107 3
115 -5 3 -10 15 -10 26 0 26 -34 93 -68 132 -55 64 -75 82 -80 69 -7 -21 -45
7 -39 29 3 12 -5 31 -20 49 -29 35 -48 39 -40 9 5 -17 3 -18 -9 -8 -8 7 -13
18 -10 24 6 16 -13 35 -35 35 -10 0 -19 5 -21 12 -8 22 -38 -1 -38 -28 0 -25
-1 -26 -22 -11 -13 8 -23 25 -23 38 0 36 -8 43 -82 72 -132 51 -217 67 -347
66 -67 0 -125 -2 -131 -5z m145 -424 c105 -13 192 -35 247 -61 90 -43 217
-185 192 -215 -20 -25 -194 -104 -260 -118 -35 -8 -102 -28 -148 -46 -69 -25
-87 -29 -96 -18 -7 7 -22 51 -35 98 -42 160 -82 295 -92 313 -6 12 -6 23 2 32
21 25 72 29 190 15z m306 -724 c32 -1 69 -7 81 -14 12 -7 28 -10 35 -7 8 3 25
-6 38 -20 13 -14 29 -25 35 -25 13 0 35 -42 35 -67 0 -18 -38 -63 -52 -63 -4
0 -8 13 -8 30 0 19 -7 33 -20 40 -11 6 -20 8 -20 4 0 -3 -6 -2 -12 4 -39 32
-139 80 -158 75 -23 -6 -60 21 -60 44 0 9 7 12 23 8 13 -4 50 -7 83 -9z"/>
<path d="M2702 3308 c-12 -40 -26 -93 -31 -118 -16 -73 -89 -278 -138 -385
-149 -330 -207 -445 -245 -482 -25 -25 -67 -30 -87 -10 -11 10 -14 10 -18 0
-3 -7 -11 -13 -19 -13 -19 0 -18 -15 3 -47 17 -25 17 -25 -5 -19 -26 9 -29 -9
-7 -37 12 -17 9 -23 -26 -58 -21 -21 -43 -39 -49 -39 -5 0 -10 -11 -10 -25 0
-27 -70 -104 -158 -175 -39 -32 -42 -38 -34 -65 7 -24 14 -31 40 -33 32 -3 46
-22 17 -22 -17 0 -20 -21 -4 -37 6 -6 12 -22 13 -35 4 -32 79 -135 105 -143
39 -12 114 45 184 138 16 21 37 37 48 37 10 0 38 14 62 31 46 34 45 34 172 1
115 -30 266 -46 450 -47 88 -1 166 -2 172 -3 7 -1 25 -26 39 -54 59 -117 206
-311 351 -464 49 -52 77 -73 101 -78 38 -7 40 1 10 40 -37 48 -68 74 -89 74
-30 0 -25 37 7 43 21 4 30 -1 45 -27 10 -17 41 -50 68 -73 46 -40 50 -41 64
-25 10 11 14 27 10 41 -5 19 -2 23 18 21 43 -4 48 -1 70 42 14 28 19 52 16 74
-3 18 -1 46 5 61 15 39 -28 131 -119 253 -67 91 -173 253 -173 266 0 3 -37 74
-82 157 -80 149 -411 808 -460 917 -23 53 -39 94 -96 260 -46 135 -52 142 -90
90 -29 -39 -43 -38 -66 5 -11 19 -25 35 -31 35 -7 0 -22 -33 -33 -72z m3 -642
c8 -15 12 -32 9 -37 -3 -5 8 -30 25 -56 32 -47 39 -73 21 -73 -5 0 -10 -11
-10 -24 0 -13 -7 -29 -15 -36 -9 -7 -22 -29 -31 -49 -40 -93 -90 -191 -97
-191 -16 0 -25 45 -12 60 26 31 -14 57 -43 28 -9 -9 -15 -9 -27 3 -12 11 -13
22 -4 53 6 21 8 45 5 53 -4 9 1 17 14 20 22 6 52 65 44 86 -3 8 5 35 16 62 18
43 19 50 5 57 -14 8 -21 58 -10 69 2 3 25 5 50 4 39 0 47 -4 60 -29z m171
-400 c31 -62 54 -118 50 -124 -9 -14 -164 -3 -198 15 -42 20 -38 36 40 191 29
56 46 43 108 -82z"/>
</g>
</svg>
